<svg xmlns="http://www.w3.org/2000/svg" viewBox="0 0 256 256" width="100%" height="100%">
  <defs>
    <filter id="softShadow" x="-10%" y="-10%" width="120%" height="120%">
      <feDropShadow dx="0" dy="6" stdDeviation="8" flood-color="#2e3440" flood-opacity="0.12"/>
    </filter>
  </defs>

  <rect x="16" y="16" width="224" height="224" rx="50" fill="#eceff4" filter="url(#softShadow)"/>

  <g transform="translate(116, 116) rotate(-45)">
    <path d="M -35,0 L -35,50 A 35 35 0 0 0 35,50 L 35,0 Z" fill="#88c0d0"/>

    <path d="M -35,0 L -35,-50 A 35 35 0 0 1 35,-50 L 35,0 Z" fill="#bf616a"/>

    <line x1="-35" y1="0" x2="35" y2="0" stroke="#eceff4" stroke-width="4" opacity="0.5"/>

    <path d="M 15,-65 A 20 20 0 0 1 25,-35" fill="none" stroke="#eceff4" stroke-width="6" stroke-linecap="round" opacity="0.6"/>
  </g>

  <g transform="translate(160, 160)">
    <circle cx="0" cy="0" r="32" fill="#ebcb8b" filter="url(#softShadow)"/>

    <circle cx="0" cy="0" r="26" fill="none" stroke="#ffffff" stroke-width="3" opacity="0.6"/>

    <line x1="0" y1="0" x2="0" y2="-14" stroke="#4c566a" stroke-width="4" stroke-linecap="round"/>
    <line x1="0" y1="0" x2="10" y2="10" stroke="#4c566a" stroke-width="4" stroke-linecap="round"/>
  </g>
</svg>
